<svg xmlns="http://www.w3.org/2000/svg" viewBox="0 0 512 512" width="100%" height="100%">
  <!-- Heater Shield Base Canvas -->
  <path d="M 256, 32 C 384, 32 448, 64 448, 128 C 448, 288 384, 416 256, 480 C 128, 416 64, 288 64, 128 C 64, 64 128, 32 256, 32 Z" fill="#0f3d27" stroke="#e6b831" stroke-width="4"/>

  <!-- LOD-2: Simplified Circuit Lines -->
  <g stroke="#e6b831" stroke-width="4" fill="none" stroke-linecap="round">
    <path d="M 128, 256 H 60" />
    <path d="M 384, 256 H 452" />
  </g>

  <!-- Eye Shape -->
  <path d="M 128, 256 C 128, 256 192, 164 256, 164 C 320, 164 384, 256 384, 256 C 384, 256 320, 348 256, 348 C 192, 348 128, 256 128, 256 Z" fill="#ffffff" stroke="#e6b831" stroke-width="4"/>

  <!-- Iris -->
  <circle cx="256" cy="256" r="60" fill="#e6b831"/>

  <!-- Pupil -->
  <circle cx="256" cy="256" r="28" fill="#4d6673"/>

  <!-- Medical Cross -->
  <path d="M 252, 242 H 260 V 252 H 270 V 260 H 260 V 270 H 252 V 260 H 242 V 252 H 252 Z" fill="#ffffff"/>
</svg>